<?xml version="1.0" encoding="utf-8"?>
<!-- Generator: Adobe Illustrator 27.3.1, SVG Export Plug-In . SVG Version: 6.00 Build 0)  -->
<svg version="1.1" id="Layer_1" xmlns="http://www.w3.org/2000/svg" xmlns:xlink="http://www.w3.org/1999/xlink" x="0px" y="0px"
	 viewBox="0 0 500 500" style="enable-background:new 0 0 500 500;" xml:space="preserve">
<style type="text/css">
	.st0{fill:#263238;}
	.st1{fill:#37474F;}
	.st2{opacity:0.15;enable-background:new    ;}
	.st3{fill:#455A64;}
	.st4{fill:#FFA8A7;}
	.st5{fill:#F28F8F;}
	.st6{fill:#B16668;}
</style>
<g id="freepik--character-1--inject-400">
	<g id="freepik--Chartacter--inject-400">
		<g id="freepik--bottom--inject-400">
			<polygon points="267.7,421.2 274.5,418.6 272.2,414.1 268,418 			"/>
			<path class="st0" d="M260.6,409c0,0-0.2,4.4-0.3,5.8s5.9,5.7,7.4,6.4l0.4-3.3c1.3,1.3,2.1,2.9,3.4,5.3c1.1,2,2.6,5.7,5.8,8.3
				c4.7,3.8,12,5.7,19.4,5.9s11.7-1.6,13.8-3.2c2.1-1.6,2.8-3.5,2.2-5.4C312.1,426.9,260.6,409,260.6,409z"/>
			<path class="st1" d="M280.4,393.8l0.1-2.6c1.4,0,1.6,3.7,3.6,6.9c2.7,4.4,6.7,9.8,10.5,13.3c7.6,6.8,14.3,11.1,17.7,14.2
				c4.5,4.1-3.4,10.7-15.5,10.1c-6-0.3-16.7-3.3-19.7-6.8c-3-3.5-4.9-9.1-7.3-11.6s-7.6-5.1-9.1-8.3c-0.8-1.7-0.4-5.7,0.1-9.1
				c0.4-3.1,0.5-7.9,2.3-7.5l0.1,1.6c0.7,1.4,2.4,3.6,7.3,4.4C272.7,398.7,280,398.9,280.4,393.8z"/>
			<path class="st2" d="M274.2,398.4c2.3-0.2,4.8-1,5.8-3.1c0,0,0,0,0-0.1c-0.3,1.8,0.3,3.6,1.6,4.9c2.2,2.5,15.9,20.3,15.9,20.3
				s-12.8-14.7-15.2-17.4C278.6,399,277.5,398.5,274.2,398.4L274.2,398.4z"/>
			<path class="st2" d="M277.3,403.2c0,0.4-0.4,0.7-0.8,0.7s-0.7-0.4-0.7-0.8s0.4-0.7,0.8-0.7c0,0,0,0,0,0
				C277,402.4,277.3,402.7,277.3,403.2z"/>
			<path class="st2" d="M280.8,407.1c0,0.4-0.4,0.7-0.8,0.6c-0.4,0-0.7-0.4-0.7-0.8c0,0,0,0,0,0c0-0.4,0.4-0.7,0.8-0.7c0,0,0,0,0,0
				C280.6,406.3,280.9,406.7,280.8,407.1C280.8,407.1,280.8,407.1,280.8,407.1z"/>
			<path class="st2" d="M284.4,411c0,0.4-0.4,0.7-0.8,0.7c-0.4,0-0.7-0.4-0.7-0.8c0,0,0,0,0-0.1c0-0.4,0.4-0.7,0.8-0.7c0,0,0,0,0,0
				C284.2,410.2,284.5,410.6,284.4,411z"/>
			<path class="st2" d="M288,415c0,0.4-0.4,0.7-0.8,0.7c-0.4,0-0.7-0.4-0.7-0.8c0.1-0.4,0.4-0.7,0.8-0.6
				C287.8,414.2,288,414.6,288,415z"/>
			<path class="st2" d="M291.6,418.9c0,0.4-0.4,0.7-0.8,0.7s-0.7-0.4-0.7-0.8s0.4-0.7,0.8-0.7c0,0,0,0,0,0
				C291.4,418.1,291.7,418.5,291.6,418.9z"/>
			<path class="st0" d="M276.5,403.4c-0.1,0-0.1,0-0.2-0.1c-0.1-0.1-0.1-0.3,0-0.4c0,0,0,0,0,0c0.1-0.1,3.7-3.6,8.4-3.4l0,0
				c0.2,0,0.3,0.2,0.3,0.3c0,0.2-0.2,0.3-0.3,0.3c0,0,0,0,0,0c-4.4-0.2-7.9,3.1-7.9,3.2C276.7,403.3,276.6,403.4,276.5,403.4z"/>
			<path class="st0" d="M280.1,407.3c-0.1,0-0.1,0-0.2-0.1c-0.1-0.1-0.1-0.3,0-0.4c0.1-0.1,3.7-3.6,8.4-3.4l0,0
				c0.2,0,0.3,0.1,0.3,0.3c0,0,0,0,0,0c0,0.2-0.1,0.3-0.3,0.3c-4.4-0.2-7.9,3.1-7.9,3.2C280.2,407.3,280.2,407.3,280.1,407.3z"/>
			<path class="st0" d="M283.7,411.2c-0.1,0-0.1,0-0.2-0.1c-0.1-0.1-0.1-0.3,0-0.4c0.1-0.1,3.7-3.6,8.4-3.4l0,0
				c0.2,0,0.3,0.1,0.3,0.2s-0.1,0.3-0.2,0.3c0,0-0.1,0-0.1,0c-4.4-0.2-7.9,3.1-7.9,3.2C283.9,411.2,283.8,411.3,283.7,411.2z"/>
			<path class="st0" d="M287.3,415.2c-0.1,0-0.1,0-0.2-0.1c-0.1-0.1-0.1-0.3,0-0.4c0.1-0.1,3.7-3.6,8.4-3.4l0,0
				c0.2,0,0.3,0.1,0.3,0.2s-0.1,0.3-0.2,0.3c0,0-0.1,0-0.1,0c-4.4-0.2-7.9,3.1-7.9,3.2C287.5,415.2,287.4,415.2,287.3,415.2z"/>
			<path class="st0" d="M290.9,419.1c-0.1,0-0.1,0-0.2-0.1c-0.1-0.1-0.1-0.3,0-0.4c0.1-0.1,3.7-3.6,8.4-3.4l0,0
				c0.2,0,0.3,0.1,0.3,0.3c0,0,0,0,0,0c0,0.2-0.1,0.3-0.3,0.3c-4.4-0.2-7.9,3.1-7.9,3.2C291,419.1,290.9,419.1,290.9,419.1z"/>
			<path class="st0" d="M212.2,442.6c-1,5.8-2.4,9.5-4.9,12.7s-6.9,3.5-10.2,2.8c-4.6-1-9.2-4.2-11-10.8c-1.1-4-0.3-8.6,1.2-13.9
				L212.2,442.6z"/>
			<path class="st1" d="M199.3,398.1c-1.6-0.1-3,7.7-4.9,15.4c-2,8.3-5.1,12.7-6.7,18.2c-2.1,7.7-2,11.3,0.2,16.4
				c2.2,5.1,13.6,11.3,19.2,5c4.6-5.1,5.5-11.2,6-19.1c0.6-8.2,1-13.9,2-20c1-5.9,2.1-11.5,0.8-12.3c-0.2,0.9-0.4,1.9-0.7,2.8
				c-0.2,0.6-0.7,3.8-1.6,3.7c0-0.7,0.1-1.5,0.2-2.2c0.2-0.7,0.1-1.4-0.2-2c-0.4-0.5-1-0.9-1.7-1c-1.6-0.5-3.1-1-4.8-1.3
				c-0.8-0.2-1.6-0.3-2.4-0.4c-1.4-0.2-2.8-0.3-4.3-0.3c-0.4,0.1-0.8,0.3-1,0.7c-0.1,0.3-0.2,0.6-0.2,0.9c-0.1,0.5-0.2,1.1-0.4,1.6
				c-0.1,0.2-0.3,0.5-0.5,0.4s-0.2-0.3-0.2-0.5c0.1-1,0.3-1.6,0.5-2.7c0.1-0.5,0.2-1.2,0.3-1.7C199,399.1,199.2,398.6,199.3,398.1z"
				/>
			<path class="st2" d="M193.5,434.4c-0.1,0.3,0.1,0.6,0.4,0.7s0.6-0.1,0.7-0.4c0.1-0.3-0.1-0.6-0.4-0.7S193.5,434.1,193.5,434.4
				L193.5,434.4z"/>
			<path class="st2" d="M194.7,429.1c-0.1,0.3,0.1,0.6,0.4,0.7s0.6-0.1,0.7-0.4c0.1-0.3-0.1-0.6-0.4-0.7c0,0,0,0,0,0
				C195,428.6,194.7,428.8,194.7,429.1C194.7,429.1,194.7,429.1,194.7,429.1z"/>
			<path class="st2" d="M195.8,424c-0.1,0.3,0.1,0.6,0.4,0.7c0,0,0,0,0,0c0.3,0.1,0.6-0.1,0.7-0.4c0,0,0,0,0,0
				c0.1-0.3-0.1-0.6-0.4-0.7C196.2,423.5,195.9,423.7,195.8,424z"/>
			<path class="st2" d="M196.9,419c-0.1,0.3,0.1,0.6,0.4,0.7c0.3,0.1,0.6-0.1,0.7-0.4c0,0,0,0,0-0.1c0.1-0.3-0.1-0.6-0.4-0.7
				S197,418.7,196.9,419C196.9,419,196.9,419,196.9,419z"/>
			<path class="st2" d="M209.7,421.4c-0.1,0.3,0.1,0.6,0.4,0.7c0.3,0.1,0.6-0.1,0.7-0.4c0.1-0.3-0.1-0.6-0.4-0.7
				C210,420.9,209.7,421.1,209.7,421.4z"/>
			<path class="st2" d="M208.6,426.4c-0.1,0.3,0.1,0.6,0.4,0.7c0,0,0,0,0,0c0.3,0.1,0.6-0.1,0.7-0.4c0,0,0,0,0,0
				c0.1-0.3-0.1-0.6-0.4-0.7c0,0,0,0,0,0C208.9,425.9,208.6,426.1,208.6,426.4z"/>
			<path class="st2" d="M207.4,431.5c-0.1,0.3,0.1,0.6,0.4,0.7s0.6-0.1,0.7-0.4c0.1-0.3-0.1-0.6-0.4-0.7c0,0,0,0,0,0
				C207.8,430.9,207.5,431.1,207.4,431.5C207.4,431.4,207.4,431.4,207.4,431.5z"/>
			<path class="st2" d="M206.3,436.8c-0.1,0.3,0.1,0.6,0.4,0.7c0,0,0,0,0,0c0.3,0.1,0.6-0.1,0.7-0.4c0,0,0,0,0,0
				c0.1-0.3-0.1-0.6-0.4-0.7C206.6,436.3,206.3,436.5,206.3,436.8C206.3,436.8,206.3,436.8,206.3,436.8z"/>
			<polygon class="st2" points="201.1,438.8 210,401.5 207.9,401.2 			"/>
			<path class="st0" d="M194,434.9L194,434.9c3.9-0.4,10.3,0.8,12.7,2.3c0.1,0.1,0.3,0,0.4-0.1c0.1-0.1,0-0.3-0.1-0.4
				c-2.5-1.6-8.9-2.8-13-2.4c-0.2,0-0.3,0.2-0.3,0.3c0,0,0,0,0,0C193.7,434.7,193.8,434.8,194,434.9z"/>
			<path class="st0" d="M195.2,429.5c0,0,0.1,0,0.1,0c3-1,9.8,0.6,12.5,2.3c0.1,0.1,0.3,0,0.4-0.1c0.1-0.1,0.1-0.3-0.1-0.4
				c0,0,0,0,0,0c-2.8-1.8-9.8-3.4-13-2.4c-0.1,0-0.2,0.2-0.2,0.3c0,0,0,0,0,0C195,429.4,195.1,429.5,195.2,429.5z"/>
			<path class="st0" d="M196.3,424.4c0,0,0.1,0,0.1,0c3-1,9.8,0.6,12.5,2.3c0.1,0.1,0.3,0.1,0.4-0.1s0.1-0.3-0.1-0.4l0,0
				c-2.8-1.8-9.8-3.5-13-2.4c-0.2,0.1-0.2,0.2-0.2,0.4c0,0,0,0,0,0C196.1,424.3,196.2,424.4,196.3,424.4z"/>
			<path class="st0" d="M197.4,419.4c0,0,0.1,0,0.2,0c3-1,9.8,0.6,12.5,2.3c0.1,0.1,0.3,0.1,0.4-0.1c0.1-0.1,0.1-0.3-0.1-0.4
				c-2.8-1.8-9.8-3.5-13-2.4c-0.2,0.1-0.2,0.2-0.2,0.4c0,0,0,0,0,0C197.2,419.3,197.3,419.4,197.4,419.4z"/>
			<path class="st0" d="M209.5,206.9c-3.8,48.1-7.5,114.5-7.5,114.5c-0.3,3.7-3.9,19.3-5.6,37.3c-1.9,19-3.4,54.7-3.4,54.7
				s13.3,7.1,24.1,3.6c0,0,11.6-60,17.1-82.4c5.2-21.2,13.4-61.4,13.4-61.4l5.6,39.8c0,0-0.7,13.7-0.3,23.3
				c0.5,11.2,7.6,64.8,7.6,64.8s14.5,8.5,25.7-0.1c0,0,1.9-74,2.2-87.4c0.6-26.4-2.5-77.4-3.4-111.4L209.5,206.9z"/>
			<path d="M227.7,263.1c-1,11.5-2.1,23.1-3.4,34.6c-0.6,5.8-1.2,11.5-1.9,17.3l-1,8.6l-0.5,4.3c-0.2,1.4-0.4,2.9-0.7,4.3
				c-1.9,11.4-4.8,32.2-6.9,43.6c-2.1,11.4-4.3,22.8-6.6,34.1c1.5-11.5,3.1-22.9,4.9-34.4c1.8-11.4,4.6-32.2,6.5-43.6
				c0.2-1.4,0.5-2.9,0.7-4.3l0.5-4.3l1.1-8.6c0.7-5.7,1.5-11.5,2.2-17.2C224.3,286,225.9,274.5,227.7,263.1z"/>
			<path d="M281,259.8c1.2,10.8,1.9,21.6,2.3,32.4s0.9,21.7,0.5,32.5c-0.4,10.8-0.5,29-0.9,39.8s-0.9,21.6-1.5,32.4
				c-0.2-10.8-0.2-21.6-0.1-32.5c0.1-10.8,0.3-29,0.5-39.8l0.2-8.1l0.1-2v-2v-4.1l-0.2-16.2l-0.3-16.2
				C281.4,270.6,281.2,265.2,281,259.8z"/>
			<path d="M247.6,273l4.7-26.4c0,0,13.1-1.9,19.8-7.9c0,0-4.3,7.9-16.6,11.1l-4.7,23.3l2.4,39.7L247.6,273z"/>
		</g>
		<g id="freepik--top--inject-400">
			<g id="freepik--chest--inject-400_00000084489863468442606650000001878980623795271567_">
				<path id="freepik--Arm--inject-400" class="st1" d="M268.9,121.2c6.7,1.8,12.8,3.5,19,13c7.8,12.1,25,36.5,26.4,49.8
					c1,9.4-22.6,2.7-22.6,2.7l-16.8-26.9L268.9,121.2z"/>
				<path id="freepik--chest--inject-400" class="st3" d="M228.5,117.7c-11.7,2.6-15.3,3.8-20.8,5.1c0,0-10.3,29.3-5.4,49.7
					c1.1,4.7,5,17.6,5.8,27.6c0.7,8.2,0.9,11.7,0,23.4c0,0,15.7,11,48.6,7.7c25.8-2.6,28.9-12.2,28.9-12.2s-1.6-35.2-2.8-54.3
					c-1.5-25-11-40-13.9-43.4c-0.9-0.5-18.4-3.2-18.4-3.2L228.5,117.7z"/>
				<path id="freepik--arm--inject-400" class="st1" d="M207.7,122.7c-12.6,3.9-13.9,9.7-14.7,15.1c-1.1,6.8,2.8,19.6,5.8,31.4
					c4,15.8,12.3,30.8,22.2,31.2l7-29.9l-6.4-19.7C221.5,150.9,218.3,126.5,207.7,122.7z"/>
			</g>
			<g id="freepik--head--inject-400">
				<path class="st1" d="M222.8,66.4c0,0-3.8,0.2-6.4,5c-1.3,2.4-2.2,6.8,1,19.3c1.2,4.9,3.2,9.6,5.9,13.9c0.8,1.4,2.1,2.4,3.6,2.9
					l-0.1-9.6l-0.3-6.7c0,0,5.5-4.8,6-9.7c0.7-6.2-1.7-9.8-1.7-9.8L222.8,66.4z"/>
				<path class="st1" d="M221.5,66.7c1-5.4,8-11.8,21.2-12.3c10.9-0.4,17.2,3.4,20.9,9.8c3.7,6.4,1.1,14.5,1.1,14.5l-34.1-2.7
					L221.5,66.7z"/>
				<path class="st4" d="M217.9,100.7c5,2.5,7.3-1.4,7.3-1.4l0.5,21.6c9.4,13,35.1,8.1,24.7-1.6v-6.1c1.5,0,2.9-0.2,4.3-0.4
					c4.4-0.6,7.2-3.8,8.6-8.5c2-7.1,2.9-18.4,0.4-30.5c-0.5-2.3-1.5-4.9-3.6-6c-5.3-2.7-10.2,1-17.7,3.8c-3.1,1.2-10.5,1.6-12.4,0.6
					c2.5,2.9,1,10.2,0.2,12.6c-1,3.4-2.5,5-3.2,5.1c-3,0.6-3.3-2-4.7-3.4c-1.3-1.4-6.4-2.8-8.7,1.9c-2.3,4.4-0.6,9.9,3.9,12.2
					C217.8,100.6,217.9,100.6,217.9,100.7z"/>
				<path class="st5" d="M231.7,107.2c1,4.9,7.6,8.2,18.8,8.6v-2.7c-2.7-0.1-5.5-0.3-8.2-0.8C237,111.4,231.7,107.2,231.7,107.2z"/>
				<path class="st1" d="M242.3,78.5l-4.9,2.1c-0.5-1.4,0.1-3,1.5-3.6C240.2,76.5,241.7,77.1,242.3,78.5
					C242.2,78.5,242.2,78.5,242.3,78.5z"/>
				<path class="st1" d="M260.8,79.6l-5.1-1.6c0.3-1.4,1.7-2.2,3.1-1.9c0,0,0.1,0,0.1,0C260.3,76.7,261.1,78.1,260.8,79.6z"/>
				<path class="st0" d="M239.1,83.8c0,1.2,1,2.1,2.2,2.1s2.1-1,2.1-2.2c0-1.2-1-2.1-2.2-2.1C240.1,81.6,239.1,82.6,239.1,83.8
					C239.1,83.8,239.1,83.8,239.1,83.8z"/>
				<path class="st0" d="M255.5,83.3c0,1.2,1,2.1,2.2,2.1c1.2,0,2.1-1,2.1-2.2c0-1.2-1-2.1-2.2-2.1c-1.1-0.1-2.1,0.8-2.1,1.9
					C255.5,83,255.5,83.2,255.5,83.3z"/>
				<path class="st5" d="M247.4,79.7l2.4,15.1l8.2-3.1C255.4,85.9,250.8,82.3,247.4,79.7z"/>
				<path class="st6" d="M245,97l9.8,1c-0.1,2.7-2.4,4.7-5,4.6c-0.1,0-0.1,0-0.2,0C246.8,102.3,244.8,99.8,245,97z"/>
				<path class="st5" d="M246.4,98.4c-0.4,0-0.8,0.1-1.2,0.2c0.5,2.1,2.2,3.7,4.4,3.9c0.5,0,1.1,0,1.6-0.1
					C250.8,100,248.8,98.3,246.4,98.4z"/>
			</g>
			<g id="freepik--hands--inject-400">
				<path class="st4" d="M254,143.7c-7.7,6.7-15.5,13.3-22.4,19c-5.9,4.8-10.1,8.1-12.3,12c-2.3,3.9-3.7,18.6-1,23.9
					c2.7,5.3,16.9,0,22.4-5.5s9.8-15.6,14.4-22.9s7.9-12.2,11.9-14.3L254,143.7z"/>
				<path class="st5" d="M266.9,155.8l-1.1-1.1c-4.1,1.7-7,4.5-10.3,9.4c-4.2,6.3-10.1,25.6-17.3,30.9c0.9-0.6,1.7-1.3,2.5-2.1
					c5.6-5.5,9.8-15.6,14.4-22.9S263,157.8,266.9,155.8z"/>
				<path class="st4" d="M291.7,155.5c-0.8,1.3,0.7,3.6,1.7,5c2.5,2.9,5.5,5.5,8.8,7.6c4.4,2.8,8.6,6.7,10.7,11.2
					c2.1,4.5,2,13-0.1,16s-7,1.9-11.4-0.1c-6.1-2.9-9.4-7.4-13.9-14c-4.9-7.2-8.7-13.4-11.7-17S291.7,155.5,291.7,155.5z"/>
				<path class="st5" d="M293.7,187.5c-2.9-3.8-10.5-20.9-8.8-24.1s6.4-5.4,7.6-4.2l0,0c-0.8-1.3-1.5-2.8-0.9-3.8
					c0,0-18.8,5-15.9,8.6c3,3.6,6.7,9.8,11.7,17c4.5,6.6,7.9,11.1,13.9,14C298.6,192.9,296,190.3,293.7,187.5z"/>
				<path class="st6" d="M297.3,153c-2.7,0.3-4.9,1.9-7,3.4s-9,6.5-13,6.7S290.2,148.7,297.3,153z"/>
				<path class="st4" d="M286.1,146.2c4.1-0.8,7.1,1,10.8,1.3c3.8,0.2,6-0.1,8.6,1.5c2.6,1.6,3.7,3.7,0.5,4.6s-6.4-0.7-9.5-0.5
					s-5.3,0.7-8.8,3.6c-3.5,2.9-8.4,8-11.4,9.9c-2.9,1.9-4.7,0.4-4.7,0.4c-1,1.2-2.3,2.2-3.7,2.9c-1,0.4-2-0.1-2.4-1.1
					c-0.1-0.3-0.2-0.7-0.1-1c-1.6,0.1-2.9-0.7-2.6-2.6s3.4-5.5,3.4-5.5s-1.8,1.6-2.8,2.3c-1.8,1.3-3.7-0.1-2.6-2.8
					c1.1-2.7,10.3-10.2,13.7-11.4c2.1-0.7,4.4-0.8,6.6-0.1C282.8,147,284.4,146.5,286.1,146.2z"/>
				<path class="st5" d="M264.9,159.2c-2.7,2.2-3.6,2.6-4.2,2.2c0.4,1.1,1.6,1.4,2.8,0.6c1-0.7,2.8-2.3,2.8-2.3l6.8-6.9
					C273,152.7,267.8,156.9,264.9,159.2z"/>
				<path class="st5" d="M273.9,155.5c-0.5,1.1-2.5,2.8-4.1,4.9s-3.6,4.7-4.9,5.7c-0.6,0.5-1.5,0.4-2.1-0.2c0,0,0,0,0,0
					c0.1,1.4,1.3,2,2.6,1.9c0.2-1.4,2.2-3.9,4.1-6.3c1.9-2.3,5.6-6,5.4-6.6C274.7,154.4,274.4,154.4,273.9,155.5z"/>
				<path class="st5" d="M278,156.2c0.6-0.7-0.5-1.7-0.9-0.7s0.1,1-1.3,2.7s-4.2,4.5-4.9,5.6c-1.2,1.3-1.6,3.2-1,4.9l0,0
					c0.6-0.5,1.2-1.1,1.8-1.7c-0.9-0.7-0.8-2.6,0.8-4.4C274,160.8,277.4,156.9,278,156.2z"/>
				<path class="st5" d="M308,152L308,152c-0.6,1-3.9,0.9-6,0.2c-2.1-0.7-6.8-2-9.5-1.5c-2.7,0.5-5.4,2.3-8.2,5.9s-6.7,7.8-9,9.3
					c-2.3,1.6-3.3,1.3-3.3,1.3c0.6,0.3,2.1,0.7,4.3-0.7c2.9-1.9,7.8-7,11.4-9.9c3.5-2.9,5.6-3.3,8.8-3.6s6.3,1.4,9.5,0.5
					C307.3,153.2,307.9,152.6,308,152z"/>
				<path class="st4" d="M267.3,154.7c2.4-0.5,4.9-0.8,7.4-0.7c4.6-0.4,8.9-0.9,9.7-2s3.6-4,3.7-5.2c0-0.8-0.3-1.5-0.8-2.1
					c0.7-0.7,1.3-1.6,1.6-2.6c0.2-1.1,0-2.3-0.6-3.3c0.6-0.5,1-1.2,1.2-2c0.4-1.7-0.6-3.3-2.2-3.8c1-0.8,1.5-2.2,1.3-3.5
					c-0.2-1.7-2.3-2.9-5.1-2.2c-2.8,0.6-8.3,2.2-9.6,1.4c-1.3-0.8-0.6-5.3-0.8-8.1s-2-7.6-4.7-7.1c-1.4,0.3-0.7,4.6-1.4,8.6
					s-4.4,8.4-6.4,13.2c-1,2.3-3.5,5.3-6.6,8.5c0.5,5.5,5.6,11.2,9.4,12.3C264.6,155.4,265.9,155,267.3,154.7z"/>
				<path class="st5" d="M273.9,128.6c-0.8-0.5-0.8-2.4-0.8-4.4l0,0c-0.5,1.9-3,4.2-1.9,5.1s4.9-0.4,7.4-1l0,0
					C276.5,128.8,274.5,129.1,273.9,128.6z"/>
				<path class="st5" d="M288.4,133.6c-0.3-0.3-0.7-0.5-1.2-0.6c0,0-3,1.5-5.7,2.6C285.4,135,287.4,134.2,288.4,133.6z"/>
				<path class="st5" d="M288.2,138.7c-1.5,1.1-4.8,2.8-4.8,2.8s3.3-0.8,5.3-1.5C288.6,139.5,288.4,139.1,288.2,138.7z"/>
				<path class="st5" d="M287.2,144.6L287.2,144.6c-1.5,1.2-3.1,2.3-4.7,3.3c1.8-0.6,3.6-1.3,5.4-2.2
					C287.7,145.3,287.5,145,287.2,144.6z"/>
				<path class="st5" d="M287.2,148.4c-1.4,1.8-3.2,3.6-8.3,4.1c-4.3,0.5-8.8,0.5-13.1,2.2c-0.9,0.4-1.7,0.8-2.5,1.2h0.1
					c4.1-1.4,7.2-1.6,11.2-2c4.6-0.4,8.9-0.9,9.7-2C284.9,151.2,286.3,149.6,287.2,148.4L287.2,148.4z"/>
				<path class="st6" d="M274.7,154l4.1-0.6c1.3-0.2,2.7-0.4,4-0.8c0.6-0.1,1.2-0.5,1.6-1c0.4-0.6,0.9-1.1,1.3-1.6
					c0.4-0.5,0.9-1,1.3-1.6c0.5-0.5,0.8-1.1,1-1.8c-0.1,0.7-0.4,1.3-0.8,1.9c-0.4,0.6-0.8,1.1-1.2,1.6c-0.4,0.5-0.9,1.1-1.3,1.6
					c-0.1,0.2-0.2,0.3-0.3,0.4c-0.1,0.1-0.3,0.2-0.4,0.3c-0.3,0.2-0.7,0.3-1,0.4c-1.3,0.3-2.7,0.6-4.1,0.7
					C277.4,153.9,276,153.9,274.7,154z"/>
				<path class="st5" d="M280.3,135.4c-0.3,0.2-0.6,0.5-0.8,0.8c-0.3,0.3-0.7,0.5-1.1,0.7c-0.2,0.1-0.5,0.2-0.7,0.2
					c-0.2,0-1.1,0.1-1.2,0.1c-0.2,0-0.3,0.1-0.5,0.2c0,0,0,0.1,0,0.1c0.3,0.1,0.5,0.2,0.8,0.2c0.3,0.1,0.6,0.1,0.9,0.1
					c0.4,0,0.9-0.1,1.2-0.3c0.3-0.2,0.6-0.5,0.9-0.9C280,136.2,280.2,135.8,280.3,135.4C280.3,135.4,280.3,135.4,280.3,135.4z"/>
				<path class="st5" d="M282.1,141.3c-0.3,0.2-0.6,0.5-0.9,0.8c-0.3,0.3-0.7,0.5-1.1,0.7c-0.2,0.1-0.5,0.2-0.7,0.2
					c-0.2,0-1.1,0.1-1.2,0.1c-0.2,0-0.3,0.1-0.5,0.2c0,0,0,0.1,0,0.1c0,0,0,0,0,0c0.3,0.1,0.5,0.2,0.8,0.2c0.3,0,0.6,0.1,0.9,0.1
					c0.4,0,0.9-0.1,1.2-0.3c0.4-0.2,0.6-0.5,0.9-0.9C281.8,142.1,282,141.7,282.1,141.3C282.1,141.3,282.1,141.3,282.1,141.3z"/>
				<path class="st5" d="M282.5,146.4c-0.3,0.2-0.6,0.5-0.8,0.8c-0.3,0.3-0.7,0.5-1.1,0.7c-0.2,0.1-0.5,0.2-0.7,0.2
					c-0.2,0-1.1,0.1-1.2,0.1c-0.2,0-0.3,0.1-0.5,0.2c0,0,0,0.1,0,0.1c0.3,0.1,0.5,0.2,0.8,0.2c0.3,0.1,0.6,0.1,0.9,0.1
					c0.4,0,0.9-0.1,1.2-0.3c0.3-0.2,0.6-0.5,0.9-0.9C282.3,147.2,282.5,146.8,282.5,146.4C282.5,146.4,282.6,146.4,282.5,146.4z"/>
			</g>
		</g>
	</g>
</g>
</svg>
