<?xml version="1.0" encoding="utf-8"?>
<!-- Generator: Adobe Illustrator 27.3.1, SVG Export Plug-In . SVG Version: 6.00 Build 0)  -->
<svg version="1.1" id="Layer_1" xmlns="http://www.w3.org/2000/svg" xmlns:xlink="http://www.w3.org/1999/xlink" x="0px" y="0px"
	 viewBox="0 0 500 500" style="enable-background:new 0 0 500 500;" xml:space="preserve">
<style type="text/css">
	.st0{fill:#37474F;}
	.st1{fill:#FFBDA7;}
	.st2{fill:#263238;}
	.st3{fill:#455A64;}
	.st4{fill:#FFFFFF;}
	.st5{opacity:0.2;enable-background:new    ;}
	.st6{fill:#B16668;}
	.st7{fill:#F0997A;}
</style>
<g id="freepik--character-2--inject-62">
	<g id="freepik--Character--inject-62">
		<g id="freepik--Bottom--inject-62">
			<path class="st0" d="M301.2,390.8c0.5,2.8,1.5,6,2.3,11.6s-0.4,5.9,3.3,20c2.2,8.5,1.9,11.9-3.3,19c-5.5,7.7-11.4,6.1-15.2-2.4
				c-3.3-7.3-3.1-10.6-3.1-18.2s-0.1-9.7-0.5-15.7c-0.3-5.3,0.1-8.9-0.2-12.9L301.2,390.8z"/>
			<path class="st1" d="M303,411.4c-1.1-7.3-1.3-14.9-1.7-19.8c-0.9-11,1.3-32.9-0.3-49.5l-28-2.8c1,6.5,8.8,35.7,11.7,53.4
				c0,0,1.2,24,2.8,34.5c0.1,1.1,1.1,1.9,2.2,1.7c0.2,0,0.4-0.1,0.6-0.2c4-1.8,8.5-2.1,12.7-0.9c1,0.4,2.2-0.1,2.6-1.2
				c0.1-0.2,0.1-0.5,0.1-0.8C305.5,422.2,303.8,416.9,303,411.4z"/>
			<path class="st1" d="M219.9,338.9c0.6,23,0.9,43.3,0.2,49.3s-1,8-2.4,12.2s-3.9,9.8-6.1,12.6c0,0-6.4,7.2-4.9,7.9
				s15.3,1.8,21.4-0.2s6.6-7.2,8.5-16.8s3.4-23.6,3.4-23.6c-0.3-0.5-0.5-1-0.7-1.6c-0.9-2.7,1.5-9.9,1.9-16.9L219.9,338.9z"/>
			<path class="st2" d="M246.4,394.4c-0.4,2.2-2.2,4.8-3,8.3c-0.9,4-1.4,8-1.5,12.1c-0.1,5-0.2,5.7-0.2,5.7l-1.5,0
				c0,0,0.2-7.2,0.3-10.4s-0.1-5.5-1.6-5.9C238.9,404.2,238.9,394.1,246.4,394.4z"/>
			<path class="st0" d="M239.7,379c1.1,2.6,4.5,6.2,6,8.7c0.8,1.3,1.2,2.8,1.3,4.3c0.1,1.3-0.4,2.5-1.3,3.4
				c-1.7,1.7-3.2,3.5-4.7,5.4c-1.8,2.6-5.2,8.5-6.1,12.7s-1.4,7.9-4.9,10c-2.8,1.7-14.1,4.2-19.9,4.7c-7.9,0.7-10-3.1-7.1-6.2
				s7.8-8.4,8.7-9.1c2.5-0.4,5-0.1,7.4,0.9c4.5,1.8,5.9,4.3,10.5,1.9c4.2-2.2,5.7-10,5-21.2C233.9,381.8,239.7,379,239.7,379z"/>
			<path class="st0" d="M278.5,180.7c0.6,2.9,1.2,5.6,2.3,7c6.5,8.7,13.2,19.2,14.6,35.6c2.1,25.9,2.9,51.8,2.2,77.8
				c0.4,3.5,3.2,11.9,4,31.9c0.7,15.9,0.2,40.6,0.2,40.6s-11.3,5.8-21.3,2.2c-4.2-15.1-11.6-51.4-15.8-68.7c-4.5-18.2-9.1-40-9.1-40
				l-6.1,32.1c0.8,6.9,0.9,13.8,0.2,20.7c-1,10.6-8.8,48.3-8.8,48.3s-12.6,4.1-21.2-1.6c0,0-2-52.9-2.3-64.6s0.3-81.2,7-111.9
				c0.2-2.4,0.3-4.7,0.3-7.1C233.3,189.7,267.4,188.4,278.5,180.7z"/>
			<path class="st3" d="M301.9,368.1c-4.2,4.1-17.5,5.4-22.8,2.7l1.8,8.2c0,0,3.5,2.3,11,1.4s9.9-3.9,9.9-3.9L301.9,368.1z"/>
			<path class="st3" d="M242.1,362.9c-4.5,1.6-17.9,1.1-22.8-1.8l0.4,7.1c0,0,2.8,2.6,10.4,3.2s10.8-1.6,10.8-1.6L242.1,362.9z"/>
			<path class="st2" d="M255.6,267.1l-5.8-39c-7.7,0.3-15.1-3.1-20-9.1c0,0-0.1,9.8,16.1,13.9l6.8,36l-3.1,30.4L255.6,267.1z"/>
			<path class="st2" d="M224.5,189.5c0,0,8.2,6,27.4,4.7s28.2-7.5,28.1-7.8l0,0c-0.6-1.6-1.1-3.3-1.4-4.9c-0.1-0.3-0.1-0.5-0.1-0.7
				c-11,7.7-45.2,9-53.7,2.3C224.8,183,224.8,187.5,224.5,189.5L224.5,189.5z"/>
		</g>
		<g id="freepik--Top--inject-62">
			<g id="freepik--Hair--inject-62">
				<path class="st2" d="M291.3,95.2c2.2-4.3,4-10,0-13.9c1.8-4.8,3-10.9-1.9-14.2c0.1-6.3-3.2-10.3-7.9-11.9
					c-4.5-1.6-9.4-1.1-12.9,3l3.4,1.6c0.5,4.3,2,8.4,5.9,10.6c-1.6,4.9-0.7,9.1,4.3,11.3c-2.8,4.9-3,10.5,0.7,15.1
					c-1.7,4.2-1,7.6,1.8,11.1c-2.9,3.5-1.2,8.3,2.1,11c-1.8,1.8-2.7,4.4-2.5,6.9c0.1,3,2.5,5.5,5.5,5.7c-1.5-1.2-1.7-2.1-0.9-4.4
					c0.8-2.4,2.2-5.2,0-7.8c2.2-3.7,4.3-8,1.7-11.9C292.3,103.4,293.8,99.2,291.3,95.2z"/>
				<path class="st4" d="M270.6,59.1c1.2-2,3.8-1.2,6,0.6s4.2,5,3,6.7C277.6,69.3,269.5,61.1,270.6,59.1z"/>
			</g>
			<g id="freepik--Chest--inject-62">
				<path d="M235.9,119.4c-8.4,0.6-15,3-22.5,10.2c-11,10.6-33.3,32-32.3,42.2l19.4-0.8l31.5-19.1L235.9,119.4z"/>
				<path class="st3" d="M262.6,114.2l17.3,5.4c3,1,14.2,7.8,10.2,24.7c-1.3,5.6-3.1,13.4-4.6,21.2c-1.2,6,3.2,17.5,6.9,35.8
					c0,0-14.8,11.8-44.2,8.4c-22.4-2.5-24.9-10.9-24.9-10.9c0.6-20.9,2.5-29,2.4-36.9c0,0-3.3-4-3.4-11.1
					c-0.1-7.4,1.8-11.4,8.5-19.9c3.8-4.8,7.9-9.3,12.2-13.6L262.6,114.2z"/>
				<path class="st4" d="M230.7,140.2c-5.2,11.8-1.7,79.3-2.1,74.2c0,0-9.7-3.7-10.6-7c0-12.1,2.2-36.5,2.4-44.9
					c0.2-9.6-0.5-16,1.9-22.1c1.8-4.5,9.2-15.8,13.7-21c2.3-0.9,4.4-1.2,7-2.1C238.2,121.4,232.7,133.1,230.7,140.2z"/>
				<path class="st5" d="M230.7,140.2c-5.2,11.8-1.7,79.3-2.1,74.2c0,0-9.7-3.7-10.6-7c0-12.1,2.2-36.5,2.4-44.9
					c0.2-9.6-0.5-16,1.9-22.1c1.8-4.5,9.2-15.8,13.7-21c2.3-0.9,4.4-1.2,7-2.1C238.2,121.4,232.7,133.1,230.7,140.2z"/>
				<path class="st2" d="M249.6,118c-3.3,2.2-17.9,12.3-20.8,31.9c0-8.6,3.2-19.2,6.3-24.2c3.8-6.1,8.8-11.8,14.4-13.5L249.6,118z"
					/>
				<path class="st4" d="M270.2,114.1c0,0,0.1,1.2-0.1,4.8s-6.8,30.8-6.9,44c0,17.9,1,35.7,3.2,53.5c0,0,21.4,1.9,29.3-8.7
					c0,0-2.8-13.3-5.5-29.5c-1.6-9.6,3-31.5,1.4-45.4c-0.7-5.8-0.3-11-4.6-12.4c-3.6-1.1-9.3-2.6-9.3-2.6L270.2,114.1z"/>
				<path class="st5" d="M270.2,114.1c0,0,0.1,1.2-0.1,4.8s-6.8,30.8-6.9,44c0,17.9,1,35.7,3.2,53.5c0,0,21.4,1.9,29.3-8.7
					c0,0-2.8-13.3-5.5-29.5c-1.6-9.6,3-31.5,1.4-45.4c-0.7-5.8-0.3-11-4.6-12.4c-3.6-1.1-9.3-2.6-9.3-2.6L270.2,114.1z"/>
				<path class="st2" d="M286.9,120.6c8.5,2.2,11.2,6.4,14.5,13.3c3.3,6.9,13.7,34.9,16.2,40.9s1.5,15.2-0.8,17.1
					s-21.9-16.5-21.9-16.5l-13.5-24.7C281.5,150.7,276.4,128,286.9,120.6z"/>
				<path class="st2" d="M269.3,110.6c1.6-0.1,2.1,0.9,4.2,3.4c1.2,1.4,2.6,2.7,4.1,3.9c-2,12.2-11.6,27.4-14.4,41.7
					c-0.1-11.6,3.8-27.6,6.7-45.4L269.3,110.6z"/>
			</g>
			<g id="freepik--Head--inject-62">
				<path class="st0" d="M249,101c-1-2-1.9-4.3-3.5-5.9s-3.7-2.4-5.6-3.7l-6-4c-7.2-4.2-6.5-13.8-4.6-18.7c4.4-11,16.5-14.8,24-15
					c14.2-0.3,21,3.6,22.2,11c3.1,0,6,1.5,7.8,4c3.4,4.8,3,12,1.4,17.1c-2.4,8-5.1,10.6-8.3,13.3c-3,2.3-5.4,5.4-6.9,8.8L249,101z"
					/>
				<path class="st1" d="M273.1,101.3c2.5,0.5,4.6-0.8,6.1-2.5c3.4-3.8,3.7-7.6,2.1-10.2c-1.3-2.1-4.6-3.4-6.8-2
					c-2.4,1.5-2.5,2.8-3.4,4.5s-4.5,1.6-5.3-5.3c-0.8-6.5-1.9-12.4-5-15.3c-4.8-4.3-10-3.6-11.9-1c-2-3-4.9-4.2-8.1-2.5
					s-5.6,6.6-6.7,18.9c-1.1,12.5,1.9,20.3,4.8,22.4c2.2,1.6,4.6,2.3,9.3,2.5l-0.1,8.3c-3.7,5.3,11.8,9.5,20.9,1.4l1-6.1l0.1-15
					C270.7,100.4,271.9,101.2,273.1,101.3z"/>
				<path class="st2" d="M253.6,85.1c0.5,0.9,1.6,1.4,2.6,1.1c0.9-0.1,1.5-0.9,1.4-1.8c0-0.1,0-0.2-0.1-0.3
					c-0.5-0.9-1.6-1.4-2.6-1.1c-0.9,0.1-1.5,0.9-1.4,1.8C253.5,84.9,253.5,85,253.6,85.1z"/>
				<path class="st2" d="M255.7,82.9c1.3,0,2.1,1.8,3.3,1.1c-0.4,1-1.5,1.4-2.4,1c0,0-0.1,0-0.1,0C255.9,84.7,255.7,82.9,255.7,82.9
					z"/>
				<path class="st2" d="M237.2,79.2l4.8-1c-0.2-1.3-1.4-2.2-2.7-2c-0.1,0-0.1,0-0.2,0C237.8,76.5,236.9,77.8,237.2,79.2z"/>
				<path class="st2" d="M242.2,84.6c-0.5,0.9-1.6,1.4-2.6,1c-0.9-0.2-1.5-1-1.3-1.9c0-0.1,0-0.2,0.1-0.3c0.5-0.9,1.6-1.4,2.6-1
					c0.9,0.2,1.5,1,1.3,1.9C242.2,84.4,242.2,84.5,242.2,84.6z"/>
				<path class="st2" d="M240.2,82.4c-1.3,0-2.1,1.7-3.4,0.9c0.3,1,1.4,1.5,2.4,1.2c0,0,0.1,0,0.1,0
					C239.9,84.2,240.2,82.4,240.2,82.4z"/>
				<path class="st2" d="M254.4,78.5l4.9,2c0.6-1.3,0-2.8-1.2-3.4c0,0-0.1,0-0.1-0.1C256.6,76.5,255,77.1,254.4,78.5z"/>
				<path class="st6" d="M252.6,97l-7,1.3c0.4,1.9,2.2,3.2,4.2,2.9c0.1,0,0.2,0,0.3-0.1C251.9,100.7,253,98.9,252.6,97
					C252.6,97.1,252.6,97.1,252.6,97z"/>
				<path class="st7" d="M248.1,101.1c0.5-1.9,2.3-3.1,4.2-2.8c0.1,0,0.2,0.1,0.3,0.1c-0.1,1.4-1.2,2.5-2.5,2.8
					C249.4,101.3,248.7,101.2,248.1,101.1z"/>
				<polygon class="st7" points="249.1,80.6 247.8,94.8 240.2,91.9 				"/>
				<path class="st7" d="M248.2,110.7c4.5-0.2,9-1,13.3-2.6c1.6-0.6,3.7-3.4,5.5-6.5c0,0-1.3,6.1-4.7,8.2
					c-5.1,3.1-14.1,3.4-14.1,3.4L248.2,110.7z"/>
			</g>
			<g id="freepik--Hands--inject-62">
				<path class="st1" d="M242,133c-0.5-2,0.9-5,3.5-2.2c2.6,2.8,12.2,14.2,14.2,15.5s4.6,1.1,7.5,2.6s7.7,6.7,10.7,7.6
					c2.9,0.7,5.5,2.1,7.6,4.2c2.7,2.5,8.1,4.8,13,7.4c5.6,3,10.1,4,13.6,7.2s8.3,14.4,3.5,17.8s-13.9,1.8-20.5-3.1
					c-4.5-3.3-6.6-6.4-12.8-13c-2.9-3.1-5.1-5.5-5.9-6.2c-2.4-2.2-4.4-1.5-7.9-1.6s-9.2-1.4-11-2.5c-2.2-1.6-4-3.8-5.2-6.2
					c-0.6-1.8,2.1-3.1,2.1-3.1l-0.4-3.9c0,0-6.9-7.2-10.7-11.9c-1.5-1.7-2.7-3.8-3.4-6c-0.3-1.1,0.3-2.2,1.3-2.5
					C241.4,133,241.7,133,242,133z"/>
				<path class="st7" d="M254.9,163.5c1.3,0.6,2.4-0.2,1.9-1.1l0.5,0.9c-0.2,0.8-1.1,0.9-0.9,1.8s1.6,1.8,1.7,1.9
					c-0.2-0.1-0.4-0.2-0.6-0.3c-1.7-1.2-3.1-2.7-4.3-4.5C253.6,162.8,254.2,163.2,254.9,163.5z"/>
				<path class="st7" d="M241.6,134.3c-0.9-0.8-1.5-0.3-1.6-0.2c0.3-0.8,1.2-1.3,2-1.1c0.6,1.1,1.3,2.1,2.1,3.1
					c1.5,2.1,7.8,9.6,9,10.2s4.9-0.3,7.8,0.5l0.5,0.2l0,0c-3.7-0.1-6,0.1-6.9,1s-1,2.9-0.7,5.4c-1.4-1.8-1.2-5.7-1.2-5.7
					c-2.7-2.7-5.2-5.6-7.6-8.5C243,136.5,242.6,135.2,241.6,134.3z"/>
				<path class="st7" d="M252.5,138.7l0.7,0.8c-1,2.4-4.1,6.4-5,7.9c-1.7-1.9-3.6-4-5-5.8c-0.8-1-1.6-2.1-2.2-3.2
					c-0.1-0.1-0.1-0.2-0.1-0.2c1.1-1.6,4.3-5.5,5.3-6.6C247.6,133,250,135.9,252.5,138.7z"/>
				<path class="st7" d="M255.9,161.3c0.4,0.4,0.7,0.9,0.9,1.4c0.1,0.2-0.1,0.9,0,1.1c0.2,0.5,0.6,1,1.1,1.2c1,0.5,2.2,0.2,2.7-0.8
					c0-0.1,0.1-0.1,0.1-0.2c0.7,1.2,1.6,1.6,2.5,2.6s2.8,1,3.1-0.4c0.1-0.7,0.1-1.4,0-2.1c-0.1-0.5-0.3-1-0.5-1.5
					c0.3,0.3,0.5,0.6,0.8,0.9c2.4,2.1,4.9,2.6,5.8,3.6c-0.2-1.3-3-2.2-4.7-3.5c-1.6-1.3-2.6-3.2-2.8-5.3c0-0.6,0.1-1.1,0.3-1.6
					l-1,1.7c0,0-0.5-1.4-1.3-1.8c0.4,1.1,1,2.6,0.6,3.6c-0.2,0.6-0.5,1.1-1,1.5c1.1-0.2,2.3,0.4,2.7,1.5c0.9,1.8,0.4,3.1-0.4,3.2
					s-1.2-0.5-1.7-1c-0.8-0.7-1.7-1.5-1.7-1.5c-1.1-1.2-1-1.3-1.3-2.2c-0.3-1.3-0.5-2.7-0.6-4c0.1-0.9,0.5-1.6,1.1-2.2
					c0.8-0.8,2.1-2,2.1-2c-0.9,0.2-1.8,0.2-2.7-0.1c-0.6-0.4-1.1-1-1.4-1.7c0.1,0.6,0,1.3-0.1,1.9c-0.2,0.7-0.6,2.1-1.5,2.4
					c1,0.1,1.2,0.8,1.5,1.4s1.1,5.3,1.3,6.1c-0.3,0.5-0.7,0.7-1.3,0.7c-0.5,0-0.9-0.2-1.2-0.6C257.1,162.9,256.6,162.1,255.9,161.3z
					"/>
				<path class="st6" d="M259.1,152.6c0.4,1,0.2,2.2-0.4,3.1c0.4,0.4,0.7,0.9,0.8,1.4c0.3-0.7,0.6-1.2,1.1-1.8
					c0.5-0.5,1.1-1.1,1.8-1.5C262.4,153.9,260.1,154.5,259.1,152.6z"/>
				<path class="st6" d="M254.3,157.4c0.1,1,0.4,1.9,0.8,2.7c0.5,0.8,1.2,1.4,1.7,2.3c0.3,0.4,0.5,0.8,0.8,1.2
					c0.4,0.7,1.3,0.9,2,0.4c0.1-0.1,0.2-0.2,0.3-0.2c0.3-0.3,0.5-0.8,0.5-1.2c0-0.1,0.1-0.1,0.1-0.1c0,0,0,0,0,0c0,0,0.1,0,0.1,0.1
					c0.5,0.8,1.1,1.6,1.9,2.1c0.4,0.3,0.8,0.6,1.1,1c0.3,0.4,0.7,0.6,1.1,0.6c0.4,0,0.8-0.4,0.9-0.8c0.1-0.5,0.1-0.9,0-1.4
					c-0.3-0.9-0.9-1.7-1.6-2.4l0,0c0,0,0-0.1,0-0.1l0.3-2.7c0,0,0-0.1,0.1-0.1c0,0,0,0,0,0c0,0,0.1,0,0.1,0.1c0,0.9,0.2,1.7,0.6,2.5
					c0.4,0.8,0.9,1.5,1.6,2.1c-1.4-1.1-2.2-2.8-2.4-4.6h0.2l-0.3,2.7v-0.1c0.8,0.7,1.3,1.5,1.7,2.5c0.2,0.5,0.2,1,0.1,1.5
					c-0.1,0.3-0.2,0.5-0.4,0.7c-0.2,0.2-0.5,0.3-0.8,0.3c-0.5,0-1-0.3-1.4-0.7c-0.3-0.4-0.7-0.7-1-1c-0.8-0.6-1.5-1.3-2-2.2h0.2
					c0,0.5-0.2,1-0.5,1.4c-0.4,0.4-0.9,0.6-1.4,0.5c-0.5-0.1-1-0.3-1.2-0.8c-0.3-0.4-0.5-0.8-0.8-1.2c-0.5-0.8-1.2-1.5-1.7-2.3
					C254.6,159.3,254.3,158.3,254.3,157.4z"/>
				<path class="st6" d="M256.8,162.3c0.2,0.4,0.1,1-0.3,1.2c0,0,0,0-0.1,0c-0.4,0.2-0.9,0.2-1.4,0.1c-0.8-0.3-1.5-0.9-2-1.7
					c0.5,0.7,1.2,1.3,2.1,1.6c0.4,0.1,0.9,0.1,1.2-0.1c0.4-0.2,0.5-0.6,0.3-1c0,0,0,0,0,0L256.8,162.3z"/>
				<path class="st7" d="M277.6,167.3c1.8,1.7,1.3,6.2,4.7,9.8c-2.9-3.1-5.1-5.5-5.9-6.2c-2.1-1.9-3.9-1.6-6.6-1.6
					C273.2,168.7,275.8,165.5,277.6,167.3z"/>
				<path class="st1" d="M212.1,151.7c2.8-1.8,3.6-2.5,5.7-4.1c1.8-1.3,3.5-2.9,4.9-4.6c1.4-1.9,2.4-2.7,3.8-2.3
					c1,0.3,2.1,0.4,3.1,0.2c0.9-0.2,1.8-0.2,3.4,0.9s3.2,1.8,4.8,0.3s7.6-8.6,9.4-11.1c1.8-2.4,3.3-2.9,4.1-1.7s0,3.7,0,3.7
					c1.1-0.2,2.1,0.4,2.5,1.4c0.8,1.8-0.5,4.4-3.1,7.9c-2.5,3.4-4.2,5.7-5,6.5s-1.3,1.5-2.2,2.4c-0.4,1.1-5.7,5.7-5.7,5.7
					c0.6,1.4,0.4,3.1-0.5,4.3c-0.7,1-1.7,1.8-2.9,2.1c-0.6,0.2-1.1,0.4-1.7,0.6c-1,0.3-2,0.4-3,0.5c-2.1,0.1-4.1,0-6.1-0.3
					c-3.5-0.3-6.8,1.6-9.6,3.6c-1.4,1-11,10-16,11.5s-14.5,1-16.1-2.2s-0.7-7.8,4.2-12.9s10-6.5,16.1-8.3
					C209,153.4,210.4,152.8,212.1,151.7z"/>
				<path class="st7" d="M205,174.7c2-1.8,2.8-3.2,5.9-6.8s7.1-4.9,7.5-10.9c0.1-2.3,1.1-4.4,2.9-5.8l0,0c1.1-1.1,2.5-2,2.6-2.4
					c0.2-0.6-0.1-2.2,0.4-3c-0.1,1.2,0.6,3,0.6,3.5c-0.2,1.4-0.5,2.7-0.9,4c-0.6,2.3,0.2,3.3,1,3.6c0.2,0.1,0.4,0.1,0.6,0.1
					c0,0.4,0,0.8,0,1.2c0.2,1.2,1.1,1.2,1.5,1.2s1.2-1,2.1-1.9c0.7-0.8,1.4-1.5,2-2.4c0,0.6,0.1,1.1,0.2,1.7
					c0.5,1.2,1.1,2.4,1.7,3.5c0.4,1.2,0,2.5-1,3.1c-0.1,0.1-0.3,0.2-0.4,0.4c-0.7,0.2-1.5,0.2-2.2,0.3c-2.1,0.1-4.1,0-6.1-0.3
					c-3.5-0.3-6.8,1.6-9.6,3.6C212.4,168.5,208.5,172.1,205,174.7z"/>
				<path class="st7" d="M241.6,147.3c-0.1,0.3-0.1,0.6,0,0.8c0,0.3,0.1,0.7,0.1,1s-0.2,0-0.4-0.1c-0.4-0.3-0.7-0.7-0.8-1.2
					c-0.3-0.7-0.2-1.4,0.2-2c1.7-1.6,3.3-3.3,4.7-5.1c1.4-1.7,4.7-5.7,5.7-7.9c1.1-0.2,2.1,0.4,2.5,1.4c-0.3-0.3-0.7-0.5-1.1-0.4
					c-0.9,0.1-1.6,1.5-2.9,3.3s-3.9,4.7-5.7,6.8c-0.8,0.7-1.5,1.5-2.1,2.4C241.8,146.7,241.7,147,241.6,147.3z"/>
				<path class="st6" d="M240.6,146c1-1,1.9-2.1,2.9-3.1s1.9-2.1,2.7-3.2s1.8-2.2,2.7-3.3c0.9-1.1,1.7-2.3,2.4-3.5
					c-0.6,1.3-1.3,2.5-2.2,3.6c-0.8,1.1-1.7,2.2-2.6,3.4c-0.9,1.1-1.8,2.2-2.8,3.2C242.7,144.1,241.6,145.1,240.6,146z"/>
				<path class="st7" d="M229,141.7c-0.9,0.3-1.2-0.4-1.9-0.9c0.8,0.2,1.7,0.2,2.5,0.1c0.3-0.1,0.6-0.1,0.9-0.1
					C229.9,141,229.9,141.4,229,141.7z"/>
				<path class="st7" d="M235.6,148.7c0.2-2-0.1-4.1-0.8-6l0,0c1,0.4,2.1,0.2,2.9-0.6l0,0c-0.3,0.3-1.2,1.1-1.2,2.1
					c0,2.9,0.5,4.4,0.5,5.2c-0.1,1.4-1.1,2.3-0.5,3.3s1.3,2.2,2.5,1.9c1.1-0.5,2.2-1.1,3.1-1.9l0,0c-0.9,0.9-1.8,1.8-2.7,2.6l-1,0.9
					c-0.2,0.2-0.4,0.3-0.6,0.5l0,0c-0.2-0.5-0.5-0.9-0.8-1.3c-0.7-1-1.4-2.1-2.3-3c-0.3-0.2-0.6-0.3-0.9-0.5
					C234.6,151.1,235.3,149.9,235.6,148.7z"/>
				<path class="st6" d="M237.8,156.7c-0.1-0.4-0.3-0.7-0.6-0.9l-0.7-0.9c-0.2-0.3-0.5-0.6-0.7-0.9s-0.4-0.6-0.6-0.9
					c-0.4-0.6-1-1-1.7-0.9c-0.7,0.3-1.2,0.8-1.4,1.4c-0.3,0.6-0.5,1.4-0.5,2.1c0,0.7,0.2,1.5,0.5,2.1c0.3,0.7,0.8,1.3,1.1,2
					c0.4,0.7,0.4,1.5,0.2,2.2c0.2-0.7,0.1-1.5-0.3-2.1c-0.3-0.7-0.8-1.2-1.1-1.9c-0.4-0.7-0.6-1.4-0.6-2.2c0-0.8,0.2-1.5,0.5-2.2
					c0.3-0.7,0.9-1.3,1.7-1.6c0.8-0.1,1.6,0.4,2,1.1c0.2,0.3,0.4,0.7,0.6,1s0.4,0.6,0.7,0.9l0.7,0.9
					C237.5,156.1,237.7,156.4,237.8,156.7z"/>
				<path class="st6" d="M229.5,144.2c0.2,1.1,0.4,2.2,0.4,3.3c0,0.6,0,1.1-0.2,1.7c-0.1,0.5-0.4,1.1-0.6,1.6l-1.5,2.9
					c-0.2,0.5-0.5,1-0.7,1.5c-0.2,0.5-0.5,1-0.8,1.5c-0.2,0.3-0.4,0.5-0.7,0.6c-0.3,0.1-0.6,0-0.9-0.2c-0.5-0.3-0.8-0.8-0.9-1.4
					c-0.1-1.1,0-2.2,0.4-3.3c0.3-1,0.5-2.1,0.6-3.2c-0.3-1.1-0.5-2.1-0.5-3.2c0.1,1.1,0.3,2.2,0.6,3.2c0,0.6-0.1,1.1-0.2,1.7
					l-0.4,1.6c-0.4,1-0.5,2.1-0.4,3.2c0.1,0.5,0.4,1,0.9,1.2c0.2,0.2,0.4,0.2,0.6,0.2c0.2-0.1,0.4-0.3,0.5-0.5
					c0.3-0.5,0.5-0.9,0.7-1.4c0.2-0.5,0.5-1,0.7-1.5l1.5-2.9c0.3-0.5,0.5-1,0.6-1.5c0.1-0.5,0.2-1.1,0.2-1.6
					C229.8,146.4,229.7,145.3,229.5,144.2z"/>
				<path class="st6" d="M226.9,159.6c-0.2,0-0.4-0.1-0.6-0.2c-0.8-0.5-1.1-1.5-0.9-2.4c0-0.1,0.1-0.1,0.2-0.1c0,0,0,0,0,0
					c0.1,0,0.1,0.1,0.1,0.2c-0.2,0.8,0.1,1.6,0.7,2.1c0.3,0.2,0.7,0.1,1-0.1c0.9-0.9,1.8-1.8,2.6-2.7c0.4-0.4,0.7-0.9,1-1.4
					c0-0.1,0.1-0.1,0.2-0.1c0.1,0,0.1,0.1,0.1,0.2c0,0,0,0,0,0.1c-0.3,0.5-0.7,1-1.1,1.4c-0.8,0.9-1.7,1.9-2.7,2.8
					C227.4,159.5,227.1,159.6,226.9,159.6z"/>
				<path class="st7" d="M226.1,147.7c0-0.1,0.1-0.1,0.1-0.2c0.3-0.3,0.6-0.5,1-0.6c0.6-0.1,1.2,0.1,1.6,0.6
					c0.1,0.2,0.3,0.6-0.1,0.6c-0.2,0-0.4-0.1-0.6-0.2c-0.4-0.1-0.8-0.2-1.2-0.1c-0.2,0-0.3,0.1-0.5,0.1s-0.3,0.1-0.4,0
					C226.1,147.8,226.1,147.7,226.1,147.7C226.1,147.7,226.1,147.7,226.1,147.7z"/>
				<path class="st7" d="M232.1,147.6c0-0.1,0.1-0.1,0.2-0.2c0.3-0.3,0.7-0.4,1.1-0.4c0.6-0.1,1.2,0.3,1.4,0.8
					c0.1,0.2,0.2,0.7-0.2,0.6c-0.2-0.1-0.4-0.2-0.6-0.3c-0.3-0.2-0.7-0.3-1.1-0.4c-0.2,0-0.3,0-0.5,0.1
					C232.4,147.8,232.2,147.8,232.1,147.6C232.1,147.7,232.1,147.6,232.1,147.6z"/>
				<path class="st7" d="M246.3,135c0,0,0.1,0,0.1,0c0.2,0,0.3,0.2,0.4,0.3c0.2,0.1,0.4,0.2,0.5,0.3c0.2,0.1,0.5,0.2,0.7,0.3
					c0.2,0.1,0.6,0.2,0.6,0.4c0,0.2-0.2,0.5-0.4,0.5c-0.5,0-1-0.2-1.4-0.6c-0.2-0.2-0.4-0.4-0.5-0.7
					C246.4,135.5,246.1,135.1,246.3,135z"/>
				<path class="st7" d="M243,139.4c0.1,0,0.1,0.2,0.2,0.2c0.2,0.2,0.4,0.4,0.7,0.6c0.3,0.1,0.7,0.3,1,0.5c0.2,0.2,0,0.5-0.1,0.6
					s-0.6,0-0.8-0.1l-0.3-0.2c-0.2-0.2-0.3-0.3-0.5-0.5c-0.2-0.2-0.3-0.4-0.4-0.7C242.8,139.7,242.8,139.3,243,139.4L243,139.4z"/>
				<path class="st7" d="M249,139.3c0,0,0.1,0,0.1,0l0.1,0.1c0.1,0.1,0.2,0.1,0.2,0.2c0.2,0.1,0.4,0.2,0.5,0.4
					c0.4,0.2,0.8,0.3,1.1,0.4c0.1,0.1,0.2,0.2,0.1,0.4c0,0.1-0.1,0.3-0.2,0.3c-0.1,0-0.2,0-0.3-0.1c-0.1,0-0.2-0.1-0.3-0.1
					c-0.2-0.1-0.4-0.2-0.6-0.3c-0.2-0.1-0.4-0.3-0.5-0.5c-0.1-0.1-0.2-0.2-0.2-0.3C249,139.6,248.9,139.4,249,139.3
					C248.9,139.3,248.9,139.2,249,139.3z"/>
				<path class="st7" d="M245.9,143.6c0.1,0,0.1,0.1,0.2,0.1l0.2,0.1c0.2,0.1,0.3,0.2,0.5,0.3l0.5,0.3l0.3,0.2
					c0.1,0,0.2,0.1,0.3,0.2c0.1,0.1,0.1,0.3,0,0.4c-0.1,0.1-0.2,0.2-0.4,0.2c-0.1-0.1-0.2-0.1-0.3-0.2l-0.2-0.1l-0.4-0.3
					c-0.1-0.1-0.3-0.2-0.4-0.4L246,144c-0.1-0.1-0.1-0.2-0.2-0.3S245.8,143.5,245.9,143.6z"/>
				<path class="st6" d="M231.8,157.9c-1-0.1-2,0-3,0.1l2.5-2.5C231.2,156.3,231.4,157.1,231.8,157.9z"/>
				<path class="st6" d="M223.8,155.8c-0.5,2.4-2.4,4.3-4.7,4.8c3-0.1,4.6-1.4,5.6-3.6C224.3,156.6,224,156.2,223.8,155.8z"/>
			</g>
		</g>
	</g>
</g>
</svg>
